<svg width="400" height="400" viewBox="0 0 400 400" fill="none" xmlns="http://www.w3.org/2000/svg">
<rect width="400" height="400" fill="white"/>
<rect x="54" y="173" width="125" height="15" fill="black"/>
<path d="M192.464 196.816C193.104 196.976 193.848 197.112 194.696 197.224C195.56 197.32 196.384 197.368 197.168 197.368C197.568 197.368 197.96 197.36 198.344 197.344C198.744 197.328 199.256 197.288 199.88 197.224V192.76L197.6 192.592C196.528 192.512 195.648 192.392 194.96 192.232C194.272 192.056 193.728 191.816 193.328 191.512C192.944 191.192 192.672 190.776 192.512 190.264C192.368 189.752 192.296 189.104 192.296 188.32C192.296 187.168 192.44 186.256 192.728 185.584C193.032 184.896 193.52 184.4 194.192 184.096C194.864 183.792 195.752 183.64 196.856 183.64C197.688 183.64 198.496 183.68 199.28 183.76C200.064 183.824 200.872 183.936 201.704 184.096L201.392 185.992C200.688 185.864 199.992 185.776 199.304 185.728C198.616 185.664 197.848 185.632 197 185.632C196.536 185.632 196.16 185.64 195.872 185.656C195.584 185.672 195.264 185.704 194.912 185.752V190.264L197.576 190.432C198.84 190.512 199.824 190.704 200.528 191.008C201.248 191.296 201.752 191.752 202.04 192.376C202.344 193 202.496 193.848 202.496 194.92C202.496 196.024 202.32 196.904 201.968 197.56C201.616 198.2 201.032 198.664 200.216 198.952C199.416 199.224 198.328 199.36 196.952 199.36C196.104 199.36 195.288 199.312 194.504 199.216C193.72 199.136 192.92 198.992 192.104 198.784L192.464 196.816ZM208.101 199.24C207.509 199.24 207.061 199.096 206.757 198.808C206.469 198.504 206.325 198.048 206.325 197.44V184.432L208.725 183.832V197.224C208.949 197.24 209.189 197.264 209.445 197.296C209.701 197.312 210.029 197.328 210.429 197.344L210.285 198.976C209.789 199.072 209.365 199.136 209.013 199.168C208.661 199.216 208.357 199.24 208.101 199.24ZM204.645 188.656V187H210.861V188.656H204.645ZM216.922 199.24C215.61 199.24 214.666 198.968 214.09 198.424C213.53 197.864 213.25 196.936 213.25 195.64C213.25 194.808 213.33 194.144 213.49 193.648C213.65 193.136 213.962 192.752 214.426 192.496C214.906 192.224 215.61 192.048 216.538 191.968C217.466 191.872 218.69 191.824 220.21 191.824H221.29V193.384H217.378C216.626 193.384 216.114 193.48 215.842 193.672C215.57 193.864 215.434 194.232 215.434 194.776V197.392H218.65C219.402 197.392 219.906 197.296 220.162 197.104C220.434 196.912 220.57 196.544 220.57 196V188.92C219.978 188.744 219.17 188.656 218.146 188.656C217.522 188.656 216.866 188.704 216.178 188.8C215.49 188.896 214.794 189.04 214.09 189.232L213.778 187.48C214.178 187.336 214.642 187.208 215.17 187.096C215.698 186.984 216.258 186.904 216.85 186.856C217.442 186.792 218.01 186.76 218.554 186.76C219.642 186.76 220.506 186.872 221.146 187.096C221.802 187.304 222.266 187.656 222.538 188.152C222.826 188.632 222.97 189.288 222.97 190.12V199H221.866L221.218 197.8C220.642 198.296 220.002 198.664 219.298 198.904C218.61 199.128 217.818 199.24 216.922 199.24ZM229.664 199.24C229.072 199.24 228.624 199.096 228.32 198.808C228.032 198.504 227.888 198.048 227.888 197.44V184.432L230.288 183.832V197.224C230.512 197.24 230.752 197.264 231.008 197.296C231.264 197.312 231.592 197.328 231.992 197.344L231.848 198.976C231.352 199.072 230.928 199.136 230.576 199.168C230.224 199.216 229.92 199.24 229.664 199.24ZM226.208 188.656V187H232.424V188.656H226.208ZM235.652 187.168L238.052 186.808V199H235.652V187.168ZM236.876 184.912C236.284 184.912 235.884 184.816 235.676 184.624C235.484 184.416 235.388 184.032 235.388 183.472C235.388 182.896 235.492 182.504 235.7 182.296C235.908 182.088 236.3 181.984 236.876 181.984C237.436 181.984 237.812 182.088 238.004 182.296C238.212 182.504 238.316 182.896 238.316 183.472C238.316 184.032 238.22 184.416 238.028 184.624C237.836 184.816 237.452 184.912 236.876 184.912ZM245.979 199.24C245.115 199.24 244.403 199.152 243.843 198.976C243.283 198.784 242.843 198.456 242.523 197.992C242.203 197.528 241.979 196.896 241.851 196.096C241.723 195.28 241.659 194.248 241.659 193C241.659 191.752 241.723 190.72 241.851 189.904C241.979 189.088 242.203 188.456 242.523 188.008C242.843 187.544 243.283 187.224 243.843 187.048C244.403 186.856 245.115 186.76 245.979 186.76C246.411 186.76 246.859 186.776 247.323 186.808C247.803 186.84 248.259 186.888 248.691 186.952C249.139 187.016 249.531 187.096 249.867 187.192L249.579 189.016C249.003 188.888 248.443 188.8 247.899 188.752C247.355 188.688 246.803 188.656 246.243 188.656C245.459 188.656 244.915 188.808 244.611 189.112C244.307 189.4 244.155 189.92 244.155 190.672V197.08C244.731 197.256 245.547 197.344 246.603 197.344C247.115 197.344 247.611 197.304 248.091 197.224C248.587 197.128 249.179 196.976 249.867 196.768L250.131 198.52C249.587 198.744 248.947 198.92 248.211 199.048C247.491 199.176 246.747 199.24 245.979 199.24ZM259.254 184H265.014C266.422 184 267.454 184.304 268.11 184.912C268.782 185.504 269.118 186.44 269.118 187.72C269.118 188.6 268.998 189.32 268.758 189.88C268.534 190.44 268.166 190.904 267.654 191.272V191.416C268.358 191.656 268.902 192.072 269.286 192.664C269.67 193.24 269.862 193.944 269.862 194.776C269.862 196.136 269.51 197.184 268.806 197.92C268.118 198.64 267.11 199 265.782 199H259.254V184ZM261.654 198.328L260.574 197.248H265.446C266.166 197.248 266.678 197.048 266.982 196.648C267.302 196.232 267.462 195.56 267.462 194.632C267.462 193.784 267.31 193.184 267.006 192.832C266.702 192.464 266.19 192.28 265.47 192.28H261.27V190.6H264.798C265.518 190.6 266.014 190.424 266.286 190.072C266.574 189.72 266.718 189.096 266.718 188.2C266.718 187.272 266.582 186.632 266.31 186.28C266.038 185.928 265.542 185.752 264.822 185.752H260.574L261.654 184.672V198.328ZM275.503 197.224C275.647 197.24 275.815 197.264 276.007 197.296C276.215 197.312 276.415 197.328 276.607 197.344L276.463 198.976C276.143 199.072 275.855 199.136 275.599 199.168C275.359 199.216 275.119 199.24 274.879 199.24C274.287 199.24 273.839 199.096 273.535 198.808C273.247 198.504 273.103 198.048 273.103 197.44V183.4L275.503 183.04V197.224ZM284.226 199.24C283.186 199.24 282.322 199.152 281.634 198.976C280.962 198.784 280.434 198.464 280.05 198.016C279.666 197.552 279.394 196.912 279.234 196.096C279.09 195.28 279.018 194.248 279.018 193C279.018 191.752 279.09 190.72 279.234 189.904C279.394 189.088 279.666 188.456 280.05 188.008C280.434 187.544 280.962 187.224 281.634 187.048C282.322 186.856 283.186 186.76 284.226 186.76C285.282 186.76 286.146 186.856 286.818 187.048C287.506 187.224 288.034 187.544 288.402 188.008C288.786 188.456 289.05 189.088 289.194 189.904C289.354 190.704 289.434 191.736 289.434 193C289.434 194.248 289.354 195.28 289.194 196.096C289.05 196.912 288.786 197.552 288.402 198.016C288.018 198.464 287.482 198.784 286.794 198.976C286.122 199.152 285.266 199.24 284.226 199.24ZM281.514 197.272H285.786C286.25 197.272 286.554 197.232 286.698 197.152C286.858 197.072 286.938 196.912 286.938 196.672V188.728H282.666C282.218 188.728 281.914 188.768 281.754 188.848C281.594 188.928 281.514 189.088 281.514 189.328V197.272ZM296.675 195.496C295.491 195.496 294.547 195.36 293.843 195.088C293.155 194.816 292.667 194.36 292.379 193.72C292.091 193.08 291.947 192.2 291.947 191.08C291.947 189.96 292.091 189.08 292.379 188.44C292.667 187.8 293.155 187.344 293.843 187.072C294.547 186.784 295.491 186.64 296.675 186.64C297.875 186.64 298.819 186.784 299.507 187.072C300.195 187.344 300.683 187.8 300.971 188.44C301.275 189.08 301.427 189.96 301.427 191.08C301.427 192.184 301.283 193.064 300.995 193.72C300.707 194.36 300.211 194.816 299.507 195.088C298.819 195.36 297.875 195.496 296.675 195.496ZM294.323 193.912H297.299C297.955 193.912 298.411 193.808 298.667 193.6C298.923 193.376 299.051 192.984 299.051 192.424V188.224H296.075C295.419 188.224 294.963 188.336 294.707 188.56C294.451 188.768 294.323 189.152 294.323 189.712V193.912ZM301.571 199.936C301.571 200.672 301.419 201.264 301.115 201.712C300.811 202.16 300.307 202.48 299.603 202.672C298.915 202.864 297.979 202.96 296.795 202.96C295.931 202.96 295.083 202.896 294.251 202.768C293.435 202.64 292.731 202.464 292.139 202.24L292.451 200.416C293.267 200.624 293.971 200.768 294.563 200.848C295.155 200.944 295.755 200.992 296.363 200.992C297.019 200.992 297.579 200.968 298.043 200.92C298.523 200.888 298.987 200.824 299.435 200.728V198.952C297.803 198.856 296.643 198.728 295.955 198.568C295.267 198.408 294.923 198.192 294.923 197.92L295.643 195.16H297.179L297.035 197.224C297.995 197.336 298.771 197.456 299.363 197.584C299.971 197.696 300.427 197.848 300.731 198.04C301.051 198.232 301.267 198.48 301.379 198.784C301.507 199.088 301.571 199.472 301.571 199.936ZM300.587 189.04L299.171 187.312L301.211 185.752L302.411 186.928L300.587 189.04Z" fill="black"/>
<rect x="106" y="192" width="73" height="15" fill="black"/>
</svg>
